<?xml version="1.0" encoding="UTF-8"?><svg id="Layer_2" xmlns="http://www.w3.org/2000/svg" viewBox="0 0 745.4 229"><g id="Foto_in_Wien"><path d="M16.5,124.3v99.4H0v-99.4h16.5ZM10.4,124.3h44.4v15.1H10.4v-15.1ZM10.4,164.2h43v14.6H10.4v-14.6Z" style="fill:#fff; stroke-width:0px;"/><path d="M68.1,173.3c3.1-5.1,7.3-9.1,12.6-12,5.3-2.9,11.3-4.3,18-4.3s12.7,1.4,18,4.3c5.3,2.9,9.5,6.9,12.6,12,3.1,5.1,4.6,11,4.6,17.8s-1.5,12.5-4.6,17.7c-3.1,5.2-7.3,9.2-12.6,12.1-5.3,2.9-11.3,4.3-18,4.3s-12.6-1.4-18-4.3c-5.3-2.9-9.6-6.9-12.6-12.1-3.1-5.2-4.6-11.1-4.6-17.7s1.5-12.6,4.6-17.8ZM81.8,201.8c1.7,3.1,4,5.5,7,7.2,2.9,1.8,6.2,2.6,9.9,2.6s7-.9,9.9-2.6c2.9-1.8,5.3-4.2,7-7.2,1.7-3.1,2.6-6.6,2.6-10.7s-.9-7.7-2.6-10.8-4-5.5-7-7.2c-2.9-1.7-6.2-2.6-9.9-2.6s-7,.9-9.9,2.6c-2.9,1.7-5.3,4.1-7,7.2s-2.6,6.7-2.6,10.8.9,7.6,2.6,10.7Z" style="fill:#fff; stroke-width:0px;"/><path d="M176.5,158.4v13.5h-37.1v-13.5h37.1ZM165.6,135.7v88h-15.1v-88h15.1Z" style="fill:#fff; stroke-width:0px;"/><path d="M186.7,173.3c3.1-5.1,7.3-9.1,12.6-12,5.3-2.9,11.3-4.3,18-4.3s12.7,1.4,18,4.3c5.3,2.9,9.5,6.9,12.6,12,3.1,5.1,4.6,11,4.6,17.8s-1.5,12.5-4.6,17.7c-3.1,5.2-7.3,9.2-12.6,12.1-5.3,2.9-11.3,4.3-18,4.3s-12.6-1.4-18-4.3c-5.3-2.9-9.6-6.9-12.6-12.1-3.1-5.2-4.6-11.1-4.6-17.7s1.5-12.6,4.6-17.8ZM200.4,201.8c1.7,3.1,4,5.5,7,7.2,2.9,1.8,6.2,2.6,9.9,2.6s7-.9,9.9-2.6c2.9-1.8,5.3-4.2,7-7.2,1.7-3.1,2.6-6.6,2.6-10.7s-.9-7.7-2.6-10.8-4-5.5-7-7.2c-2.9-1.7-6.2-2.6-9.9-2.6s-7,.9-9.9,2.6c-2.9,1.7-5.3,4.1-7,7.2s-2.6,6.7-2.6,10.8.9,7.6,2.6,10.7Z" style="fill:#fff; stroke-width:0px;"/><path d="M542.8,124.3h19.6l-40.8,104.7-30.7-70.3-30.7,70.3-40.6-104.7h19.5l23.7,66.5,28.1-71.4,28.7,71.4,23.1-66.5Z" style="fill:#fff; stroke-width:0px;"/><path d="M575.5,125.8c1.9-1.8,4.2-2.7,6.7-2.7s5.1.9,7,2.7c1.9,1.8,2.8,4,2.8,6.7s-.9,4.8-2.8,6.6c-1.9,1.8-4.2,2.8-7,2.8s-4.8-.9-6.7-2.8c-1.9-1.8-2.9-4-2.9-6.6s1-4.9,2.9-6.7ZM589.9,158.4v65.3h-15.2v-65.3h15.2Z" style="fill:#fff; stroke-width:0px;"/><path d="M621.9,220.9c-5.1-2.8-9-6.8-11.7-11.9-2.7-5.1-4.1-11.1-4.1-17.9s1.4-12.9,4.2-18c2.8-5.1,6.7-9.1,11.9-11.9,5.1-2.8,11.1-4.2,18-4.2s12.8,1.3,17.7,4c4.9,2.7,8.6,6.5,11.1,11.4,2.6,5,3.8,11,3.8,18s0,1.6,0,2.4c0,.9,0,1.5,0,1.8h-57.4v-10.6h44.2l-4.7,6.5c.3-.6.6-1.3.9-2.3.3-.9.5-1.8.5-2.4,0-3.5-.7-6.5-2.1-9.1-1.4-2.6-3.3-4.5-5.7-6-2.4-1.4-5.2-2.1-8.4-2.1s-7.2.9-9.9,2.6c-2.7,1.7-4.8,4.2-6.2,7.4-1.5,3.2-2.2,7.2-2.2,11.9,0,4.6.6,8.6,2.1,11.9,1.5,3.3,3.6,5.8,6.3,7.5,2.7,1.7,6.1,2.6,10.1,2.6s8-.9,11.1-2.6c3.1-1.7,5.7-4.3,7.7-7.8l13.3,5.3c-3.5,5.9-8,10.3-13.3,13.3-5.4,3-11.9,4.5-19.5,4.5s-12.5-1.4-17.5-4.3Z" style="fill:#fff; stroke-width:0px;"/><path d="M726.7,173c-2-2.5-5-3.7-9.1-3.7s-5.5.6-7.7,1.8c-2.2,1.2-3.9,2.9-5,5.1-1.2,2.2-1.8,4.8-1.8,7.7v39.8h-15.5v-65.3h15.5v10.1c2.1-3.9,4.8-6.8,8-8.7,3.3-1.9,7.1-2.8,11.6-2.8,7.4,0,13,2.2,16.9,6.7,3.9,4.5,5.8,10.6,5.8,18.4v41.6h-15.8v-39.8c0-4.8-1-8.5-3-10.9Z" style="fill:#fff; stroke-width:0px;"/><path d="M363.7,173c-2-2.5-5-3.7-9.1-3.7s-5.5.6-7.7,1.8c-2.2,1.2-3.9,2.9-5,5.1-1.2,2.2-1.8,4.8-1.8,7.7v39.7h26.6v-39.7c0-4.8-1-8.5-3-10.9Z" style="fill:#fff; stroke-width:0px;"/><path d="M408.1,184.8c0,0,0-.1,0-.2l-5.1-18.3v-.2s0-7,0-7c0-.2,0-.4.2-.6,0,0,.2-.1.2-.2,0,0,.2,0,.3,0h.8c.2,0,.4,0,.6-.2.2-.1.2-.3.2-.6v-6.9s0,0,0,0c0,0,0-.1,0-.2,0-.2-.1-.3-.2-.4,0,0-.1,0-.2-.1,0,0-2.5.2-3.3,0,0,0,0,0,0,0-.2-.3-.4-1.7-.4-2-.4-2.4-1.1-7-1.4-9.5,0,0,0-.1,0-.2,0-.4-.4-.7-.8-.7s-.8.3-.9.7c0,0,0,.1,0,.2l-1.4,9.5c0,.3-.2,1.9-.5,2h-3.3c-.3.1-.5.4-.5.7v6.9c0,.4.4.8.8.8h.8c.4,0,.7.3.8.7,0,0,0,0,0,.2v7s0,0,0,.1c0,0,0,0,0,0v.4c-.6,1.7-4.2,17-5.3,17-1.3-.1-4.2-12.2-4.5-13.8-2.1-8.2-7.9-17.5-22.4-17.5h-40.9c-.4,0-.7.3-.8.7v26.7c-.1.4-.5.7-.9.7h-4.2c-.4,0-.8-.3-.8-.8l-.5-26.4c0-.4-.4-.9-.8-.9h-1.1c-.4,0-.7-.3-.7-.7l-.5-21.6c0-.4-.4-.8-.8-.8h-.3c-.4,0-.8-.3-.8-.8l-.9-28.9c0-.4-.2-.7-.6-.8l-.9-.3c-.1,0-.3,0-.4,0l-1.2.3c-.5.1-.9-.2-1-.7l-.6-5.5c0-.3-.2-.6-.5-.7l-1.1-.4c-.3-.1-.5-.4-.5-.7l-.2-2.8c0-.5.3-.9.8-.9l3.6-.5h0c0-.1-3.8-.5-3.8-.5-.4,0-.8-.3-.8-.8l-.2-3.4c0-.5.3-.9.8-.9l3.5-.5h0c0-.1-3.6-.5-3.6-.5-.4,0-.8-.3-.8-.8l-.2-3.4c0-.5.3-.9.8-.9l3.4-.5h0c0-.1-3.5-.5-3.5-.5-.4,0-.8-.3-.8-.8l-.2-3.4c0-.5.3-.9.8-.9l3.2-.5h0c0-.1-3.4-.5-3.4-.5-.4,0-.8-.3-.8-.8l-.2-3.4c0-.5.3-.9.8-.9l3.1-.5h0c0-.1-3.3-.5-3.3-.5-.4,0-.8-.3-.8-.8l-.2-3.4c0-.5.3-.9.8-.9l3-.5h0c0-.1-3.2-.5-3.2-.5-.4,0-.8-.3-.8-.8l-.2-3.4c0-.5.3-.9.8-.9l2.9-.5h0c0-.1-3-.5-3-.5-.4,0-.8-.3-.8-.8l-.2-3.4c0-.5.3-.9.8-.9l2.8-.5h0c0-.1-2.9-.5-2.9-.5-.4,0-.8-.3-.8-.8l-.2-3.4c0-.5.3-.9.8-.9l2.6-.5h0c0-.1-2.8-.5-2.8-.5-.4,0-.8-.3-.8-.8l-.2-3.4c0-.5.3-.9.8-.9l2.5-.5h0c0-.1-2.7-.5-2.7-.5-.4,0-.8-.3-.8-.8l-.2-3.4c0-.5.3-.9.8-.9l2.4-.5h0c0-.1-2.5-.5-2.5-.5-.4,0-.8-.3-.8-.8l-.6-9.3c0-.3.1-.5.3-.7l2.3-1.7c.4-.3.4-1,0-1.3l-2.7-2c-.2-.1-.3-.4-.3-.6l-.4-5.9c0-.3,0-.5.3-.7l.6-.5-1-.8h0s-.1-2-.1-2h0v2c-.1,0-.1,0-.1,0l-1,.8.6.5c.2.2.3.4.3.7l-.4,5.9c0,.2-.1.5-.3.6l-2.7,2c-.4.3-.4,1,0,1.3l2.3,1.7c.2.2.3.4.3.7l-.6,9.3c0,.4-.4.8-.8.8l-2.5.4h0c0,.1,2.4.6,2.4.6.5,0,.8.4.8.9l-.2,3.4c0,.4-.4.8-.8.8l-2.7.4h0c0,.1,2.5.6,2.5.6.5,0,.8.4.8.9l-.2,3.4c0,.4-.4.8-.8.8l-2.8.4h0c0,.1,2.6.6,2.6.6.5,0,.8.4.8.9l-.2,3.4c0,.4-.4.8-.8.8l-2.9.4h0c0,.1,2.8.6,2.8.6.5,0,.8.4.8.9l-.2,3.4c0,.4-.4.8-.8.8l-3,.4h0c0,.1,2.9.6,2.9.6.5,0,.8.4.8.9l-.2,3.4c0,.4-.4.8-.8.8l-3.2.4h0c0,.1,3,.6,3,.6.5,0,.8.4.8.9l-.2,3.4c0,.4-.4.8-.8.8l-3.3.4h0c0,.1,3.1.6,3.1.6.5,0,.8.4.8.9l-.2,3.4c0,.4-.4.8-.8.8l-3.4.4h0c0,.1,3.2.6,3.2.6.5,0,.8.4.8.9l-.2,3.4c0,.4-.4.8-.8.8l-3.5.4h0c0,.1,3.4.6,3.4.6.5,0,.8.4.8.9l-.2,3.4c0,.4-.4.8-.8.8l-3.7.4h0c0,.1,3.5.6,3.5.6.5,0,.8.4.8.9l-.2,3.4c0,.4-.4.8-.8.8l-3.8.4h0c0,.1,3.6.6,3.6.6.5,0,.8.4.8.9l-.2,2.8c0,.3-.2.6-.5.7l-1.1.4c-.3.1-.5.4-.5.7l-.6,5.5c0,.5-.5.8-1,.7l-1.3-.3c-.1,0-.3,0-.4,0l-.9.3c-.3,0-.6.4-.6.8l-.9,28.9c0,.4-.4.8-.8.8h-.3c-.4,0-.8.4-.8.8l-.5,21.6c0,.4-.3.7-.7.7h-1.1c-.4,0-.8.4-.8.8l-1,70.5h12v-63.4h15.2v63.4h21.2v-65.3h15.5v10.1c2.1-3.9,4.8-6.8,8-8.7,3.3-1.9,7.1-2.8,11.6-2.8,7.4,0,13,2.2,16.9,6.8,3.9,4.5,5.8,10.6,5.8,18.4v41.6h25.6v-29.5c0-.5.1-3.5.1-3.9v-5.3s0-.1,0-.2ZM302.8,139c-1.9,1.8-4.2,2.8-7,2.8s-4.8-.9-6.8-2.8c-1.9-1.8-2.9-4-2.9-6.6s1-4.9,2.9-6.7c1.9-1.8,4.2-2.7,6.8-2.7s5.1.9,7,2.7c1.9,1.8,2.8,4,2.8,6.7s-1,4.8-2.8,6.6Z" style="fill:#fff; stroke-width:0px;"/></g></svg>